<svg width="208" height="40" viewBox="0 0 208 40" fill="none" xmlns="http://www.w3.org/2000/svg">
<rect width="208" height="40" rx="3" fill="white" fill-opacity="0.01"/>
<path d="M51.2373 25V15.1357H52.7686V19.3057H57.834V15.1357H59.3584V25H57.834V20.6318H52.7686V25H51.2373ZM64.8066 25.1436C62.626 25.1436 61.293 23.6875 61.293 21.2949V21.2812C61.293 18.8955 62.6328 17.4326 64.8066 17.4326C66.9736 17.4326 68.3135 18.8887 68.3135 21.2812V21.2949C68.3135 23.6875 66.9805 25.1436 64.8066 25.1436ZM64.8066 23.9062C66.0781 23.9062 66.8027 22.9355 66.8027 21.2949V21.2812C66.8027 19.6338 66.0781 18.6699 64.8066 18.6699C63.5283 18.6699 62.8105 19.6338 62.8105 21.2812V21.2949C62.8105 22.9424 63.5283 23.9062 64.8066 23.9062ZM70.084 25V17.5762H71.5674V18.7178H71.6768C72.0049 17.9043 72.7295 17.4326 73.7002 17.4326C74.7119 17.4326 75.4297 17.959 75.7578 18.7588H75.874C76.25 17.959 77.1045 17.4326 78.1367 17.4326C79.6338 17.4326 80.5088 18.335 80.5088 19.8799V25H79.0322V20.2354C79.0322 19.21 78.5674 18.7041 77.5967 18.7041C76.6533 18.7041 76.0312 19.4082 76.0312 20.3037V25H74.5547V20.085C74.5547 19.2373 74.001 18.7041 73.126 18.7041C72.2305 18.7041 71.5674 19.4697 71.5674 20.4404V25H70.084ZM85.6973 25.1436C83.5234 25.1436 82.2109 23.6602 82.2109 21.3086V21.3018C82.2109 18.9844 83.5508 17.4326 85.6221 17.4326C87.6934 17.4326 88.9648 18.9297 88.9648 21.1582V21.6777H83.7012C83.7285 23.0996 84.5078 23.9268 85.7314 23.9268C86.6816 23.9268 87.249 23.4551 87.4268 23.0723L87.4541 23.0176L88.8828 23.0107L88.8691 23.0723C88.623 24.0498 87.5977 25.1436 85.6973 25.1436ZM85.6289 18.6494C84.6172 18.6494 83.8516 19.3398 83.7217 20.6182H87.4951C87.3789 19.292 86.6338 18.6494 85.6289 18.6494Z" fill="#42526E"/>
<rect width="24" height="24" transform="translate(10 8)" fill="white" fill-opacity="0.01"/>
<path fill-rule="evenodd" clip-rule="evenodd" d="M32 20C32 25.5228 27.5228 30 22 30C16.4772 30 12 25.5228 12 20C12 14.4772 16.4772 10 22 10C27.5228 10 32 14.4772 32 20ZM20.414 18.995H26C26.552 18.995 27 19.445 27 20C27 20.555 26.552 21.005 26 21.005H20.414L21.686 22.284C21.8732 22.4731 21.9782 22.7284 21.9782 22.9945C21.9782 23.2606 21.8732 23.5159 21.686 23.705C21.5932 23.7981 21.4829 23.872 21.3615 23.9224C21.2401 23.9728 21.11 23.9987 20.9785 23.9987C20.847 23.9987 20.7169 23.9728 20.5955 23.9224C20.4741 23.872 20.3638 23.7981 20.271 23.705L17.293 20.712C17.1052 20.5228 16.9998 20.2671 16.9998 20.0005C16.9998 19.734 17.1052 19.4782 17.293 19.289L20.271 16.295C20.3636 16.2016 20.4738 16.1274 20.5952 16.0768C20.7167 16.0261 20.8469 16.0001 20.9785 16.0001C21.1101 16.0001 21.2403 16.0261 21.3618 16.0768C21.4832 16.1274 21.5934 16.2016 21.686 16.295C21.8732 16.4841 21.9782 16.7394 21.9782 17.0055C21.9782 17.2716 21.8732 17.5269 21.686 17.716L20.414 18.995Z" fill="#42526E"/>
</svg>
