<svg width="24" height="24" viewBox="0 0 24 24" fill="none" xmlns="http://www.w3.org/2000/svg">
<path d="M0 12C0 5.37258 5.37258 0 12 0C18.6274 0 24 5.37258 24 12C24 18.6274 18.6274 24 12 24C5.37258 24 0 18.6274 0 12Z" fill="#D92D20"/>
<path d="M16.5 11C16.5 11 15.4975 9.63411 14.6831 8.81912C13.8687 8.00413 12.7432 7.5 11.5 7.5C9.01472 7.5 7 9.51472 7 12C7 14.4853 9.01472 16.5 11.5 16.5C13.5515 16.5 15.2824 15.1271 15.8241 13.25M16.5 11V8M16.5 11H13.5" stroke="white" stroke-linecap="round" stroke-linejoin="round"/>
</svg>
