<svg width="24" height="24" viewBox="0 0 24 24" fill="none" xmlns="http://www.w3.org/2000/svg">
<rect width="24" height="24" fill="white" fill-opacity="0.01"/>
<path d="M10.0001 19.0004V14.5004C10.0001 13.97 10.2108 13.4613 10.5858 13.0862C10.9609 12.7111 11.4696 12.5004 12.0001 12.5004C12.5305 12.5004 13.0392 12.7111 13.4143 13.0862C13.7893 13.4613 14.0001 13.97 14.0001 14.5004V19.0004H18.0001C18.2653 19.0004 18.5196 18.8951 18.7072 18.7075C18.8947 18.52 19.0001 18.2656 19.0001 18.0004V10.1694L12.7071 3.87341C12.5195 3.68594 12.2652 3.58063 12.0001 3.58063C11.7349 3.58063 11.4806 3.68594 11.2931 3.87341L5.00006 10.1694V18.0004C5.00006 18.2656 5.10542 18.52 5.29295 18.7075C5.48049 18.8951 5.73484 19.0004 6.00006 19.0004H10.0001ZM21.0001 12.1704V18.0004C21.0001 18.7961 20.684 19.5591 20.1214 20.1217C19.5588 20.6843 18.7957 21.0004 18.0001 21.0004H6.00006C5.20441 21.0004 4.44135 20.6843 3.87874 20.1217C3.31613 19.5591 3.00006 18.7961 3.00006 18.0004V12.1704L2.96006 12.2104C2.57006 12.6004 1.93006 12.6004 1.54006 12.2104C1.15006 11.8204 1.15006 11.1804 1.54006 10.7904L9.87906 2.45941C10.4416 1.897 11.2046 1.58105 12.0001 1.58105C12.7956 1.58105 13.5585 1.897 14.1211 2.45941L22.4601 10.7904C22.8501 11.1804 22.8501 11.8204 22.4601 12.2104C22.0701 12.6004 21.4301 12.6004 21.0401 12.2104L21.0001 12.1704Z" fill="#0052cb"/>
</svg>
