<svg width="21" height="20" viewBox="0 0 21 20" fill="none" xmlns="http://www.w3.org/2000/svg">
<path d="M10.6673 10.8333C11.1276 10.8333 11.5007 10.4602 11.5007 9.99998C11.5007 9.53974 11.1276 9.16665 10.6673 9.16665C10.2071 9.16665 9.83398 9.53974 9.83398 9.99998C9.83398 10.4602 10.2071 10.8333 10.6673 10.8333Z" stroke="#AFB8C1" stroke-width="1.66667" stroke-linecap="round" stroke-linejoin="round"/>
<path d="M10.6673 4.99998C11.1276 4.99998 11.5007 4.62688 11.5007 4.16665C11.5007 3.70641 11.1276 3.33331 10.6673 3.33331C10.2071 3.33331 9.83398 3.70641 9.83398 4.16665C9.83398 4.62688 10.2071 4.99998 10.6673 4.99998Z" stroke="#AFB8C1" stroke-width="1.66667" stroke-linecap="round" stroke-linejoin="round"/>
<path d="M10.6673 16.6666C11.1276 16.6666 11.5007 16.2935 11.5007 15.8333C11.5007 15.3731 11.1276 15 10.6673 15C10.2071 15 9.83398 15.3731 9.83398 15.8333C9.83398 16.2935 10.2071 16.6666 10.6673 16.6666Z" stroke="#AFB8C1" stroke-width="1.66667" stroke-linecap="round" stroke-linejoin="round"/>
</svg>
