<svg width="24" height="24" viewBox="0 0 24 24" fill="none" xmlns="http://www.w3.org/2000/svg">
<rect width="24" height="24" rx="12" fill="#6E6E73"/>
<g clip-path="url(#clip0_1339_6932)">
<path d="M12 13.5C14.8406 13.5 17.1429 11.1498 17.1429 8.25C17.1429 5.3502 14.8406 3 12 3C9.15938 3 6.85714 5.3502 6.85714 8.25C6.85714 11.1498 9.15938 13.5 12 13.5ZM15.6 14.8125H14.929C14.0371 15.2309 13.0446 15.4688 12 15.4688C10.9554 15.4688 9.96696 15.2309 9.07098 14.8125H8.4C5.41875 14.8125 3 17.2816 3 20.325V22.0312C3 23.1182 3.86384 24 4.92857 24H19.0714C20.1362 24 21 23.1182 21 22.0312V20.325C21 17.2816 18.5813 14.8125 15.6 14.8125Z" fill="white"/>
</g>
<defs>
<clipPath id="clip0_1339_6932">
<rect x="3" y="3" width="18" height="21" fill="white"/>
</clipPath>
</defs>
</svg>
