<?xml version="1.0" encoding="UTF-8"?>
<svg version="1.1" xmlns="http://www.w3.org/2000/svg" width="42" height="42">
<path d="M0 0 C5.02730403 3.55589797 8.23763132 7.08717684 10.5625 12.8125 C10.85487234 15.57948413 10.75971164 18.28693179 10.625 21.0625 C10.5152719 23.66795874 10.49514021 26.20011165 10.5625 28.8125 C11.2225 29.4725 11.8825 30.1325 12.5625 30.8125 C13.03129799 34.40661792 13.00611448 36.16414037 10.9375 39.1875 C7.91414037 41.25611448 6.15661792 41.28129799 2.5625 40.8125 C1.9025 40.1525 1.2425 39.4925 0.5625 38.8125 C-2.75366034 38.72699362 -6.00954032 38.81782796 -9.3203125 38.97851562 C-15.49321601 39.1448857 -19.36897725 37.59239167 -24.125 33.5 C-29.10546536 27.71189161 -29.93586747 23.15181652 -29.72265625 15.65234375 C-29.09964862 9.44787047 -26.05295424 5.78393737 -21.4375 1.8125 C-15.20820182 -2.59358896 -7.02670166 -2.42740603 0 0 Z " fill="#77583D" transform="translate(29.4375,1.1875)"/>
<path d="M0 0 C5.02730403 3.55589797 8.23763132 7.08717684 10.5625 12.8125 C10.85487234 15.57948413 10.75971164 18.28693179 10.625 21.0625 C10.5152719 23.66795874 10.49514021 26.20011165 10.5625 28.8125 C11.2225 29.4725 11.8825 30.1325 12.5625 30.8125 C13.03129799 34.40661792 13.00611448 36.16414037 10.9375 39.1875 C7.88464079 41.27629841 6.19281776 41.35318562 2.5625 40.8125 C0.6875 39.8125 0.6875 39.8125 -0.4375 37.8125 C-0.85748341 34.96011266 -0.71696081 32.74683851 -0.4375 29.8125 C0.5525 29.1525 1.5425 28.4925 2.5625 27.8125 C3.17347206 20.11425203 2.8299985 10.90583094 -1.375 4.1875 C-4.06607015 1.08869194 -5.78019948 0.88553339 -9.8125 0.4375 C-13.50349905 0.52649539 -13.50349905 0.52649539 -16.25 2.75 C-18.69149593 6.16809431 -19.26489007 8.65801962 -19.96875 12.71875 C-20.54508024 15.29302507 -21.62264024 16.91514661 -23.4375 18.8125 C-23.086875 19.410625 -22.73625 20.00875 -22.375 20.625 C-21.4375 22.8125 -21.4375 22.8125 -22.4375 25.8125 C-21.7775 25.8125 -21.1175 25.8125 -20.4375 25.8125 C-20.4375 26.4725 -20.4375 27.1325 -20.4375 27.8125 C-22.7475 28.1425 -25.0575 28.4725 -27.4375 28.8125 C-30.43904524 23.81391072 -29.92265352 18.45999018 -29.4375 12.8125 C-27.4430539 7.03910339 -23.80618269 3.48790971 -18.875 0 C-12.6805838 -2.13988923 -6.1944162 -2.13988923 0 0 Z " fill="#E3ECF5" transform="translate(29.4375,1.1875)"/>
<path d="M0 0 C2.31 0.33 4.62 0.66 7 1 C7 1.66 7 2.32 7 3 C10.465 2.505 10.465 2.505 14 2 C15.67110042 4.96178773 16.32682752 7.37071192 16.625 10.75 C16.69976563 11.54921875 16.77453125 12.3484375 16.8515625 13.171875 C16.92503906 14.07679687 16.92503906 14.07679687 17 15 C5.16808169 15.56843736 5.16808169 15.56843736 0 12 C-4.59183673 7.81632653 -4.59183673 7.81632653 -6 5 C-1.25 3 -1.25 3 1 3 C1.33 2.34 1.66 1.68 2 1 C1.34 0.67 0.68 0.34 0 0 Z " fill="#B49F85" transform="translate(8,25)"/>
<path d="M0 0 C0.33 0 0.66 0 1 0 C0.97679687 1.13179687 0.95359375 2.26359375 0.9296875 3.4296875 C0.91093099 4.91145175 0.89273066 6.39322312 0.875 7.875 C0.85824219 8.62136719 0.84148438 9.36773437 0.82421875 10.13671875 C0.8066041 12.09194461 0.89679811 14.04742021 1 16 C1.66 16.66 2.32 17.32 3 18 C3.46879799 21.59411792 3.44361448 23.35164037 1.375 26.375 C-1.67785921 28.46379841 -3.36968224 28.54068562 -7 28 C-8.875 27 -8.875 27 -10 25 C-10.41998341 22.14761266 -10.27946081 19.93433851 -10 17 C-9.01 16.34 -8.02 15.68 -7 15 C-6.42251197 13.03638136 -6.42251197 13.03638136 -6.3125 10.875 C-6.209375 9.59625 -6.10625 8.3175 -6 7 C-4.02 7 -2.04 7 0 7 C0 4.69 0 2.38 0 0 Z " fill="#F3FBF7" transform="translate(39,14)"/>
<path d="M0 0 C0.33 1.65 0.66 3.3 1 5 C0.01 5 -0.98 5 -2 5 C-2 5.99 -2 6.98 -2 8 C-0.35 8 1.3 8 3 8 C3 10.97 3 13.94 3 17 C0.03 17.33 -2.94 17.66 -6 18 C-8.11126943 13.77746115 -8.2171997 11.85998477 -8.125 7.25 C-8.09792969 5.49429687 -8.09792969 5.49429687 -8.0703125 3.703125 C-8.04710937 2.81109375 -8.02390625 1.9190625 -8 1 C-5.29120665 -0.35439668 -2.99066732 -0.06501451 0 0 Z " fill="#C7987D" transform="translate(21,5)"/>
<path d="M0 0 C0.66 0.33 1.32 0.66 2 1 C1.67 2.32 1.34 3.64 1 5 C0.34 4.67 -0.32 4.34 -1 4 C-4.37822416 3.85624578 -6.77390955 3.92463652 -10 5 C-9.88556397 7.0839403 -9.75804453 9.16716493 -9.625 11.25 C-9.52058594 12.99023438 -9.52058594 12.99023438 -9.4140625 14.765625 C-8.88049417 18.93349838 -7.94883392 21.05116608 -5 24 C-5.66 24.66 -6.32 25.32 -7 26 C-7 25.34 -7 24.68 -7 24 C-7.99 24 -8.98 24 -10 24 C-10.33 23.01 -10.66 22.02 -11 21 C-11.70125 20.46375 -12.4025 19.9275 -13.125 19.375 C-15.26904205 16.65921341 -15.28296648 16.01710919 -15.0625 12.6875 C-14.27269606 7.71008976 -12.24578042 4.79993805 -9 1 C-6.01405576 -0.49297212 -3.29146376 -0.11755228 0 0 Z " fill="#625349" transform="translate(23,1)"/>
<path d="M0 0 C3.48824341 0.2583884 4.24214247 1.26466736 6.6875 3.9375 C10.02932982 8.36316651 10.10230895 10.47531647 10 16 C8.00045254 16.04254356 5.99958364 16.04080783 4 16 C2.30501968 14.30501968 2.39160652 11.99736656 2 9.6875 C1.44149484 6.41937214 0.85262477 3.2049556 0 0 Z " fill="#E7F1FA" transform="translate(29,5)"/>
<path d="M0 0 C3.95085342 2.79450608 6.88124435 5.79061652 9.5625 9.8125 C9.2325 10.8025 8.9025 11.7925 8.5625 12.8125 C7.634375 11.389375 7.634375 11.389375 6.6875 9.9375 C4.74279031 6.86804891 4.74279031 6.86804891 2.5625 4.8125 C1.2425 4.8125 -0.0775 4.8125 -1.4375 4.8125 C-2.0975 3.8225 -2.7575 2.8325 -3.4375 1.8125 C-7.09038193 0.59487269 -9.59504136 0.42174149 -13.4375 0.8125 C-16.59598783 3.13901508 -16.59598783 3.13901508 -19.4375 5.8125 C-20.30375 6.1425 -21.17 6.4725 -22.0625 6.8125 C-25.18749649 8.128288 -26.50239802 10.08902313 -28.4375 12.8125 C-28.02061525 7.94884454 -26.02530535 5.98311868 -22.4375 2.8125 C-16.09426527 -2.41134037 -7.63693307 -2.63821324 0 0 Z " fill="#C8D5EE" transform="translate(29.4375,1.1875)"/>
<path d="M0 0 C0.268125 0.61875 0.53625 1.2375 0.8125 1.875 C1.95556848 4.2995233 1.95556848 4.2995233 5 6 C5 6.99 5 7.98 5 9 C6.32 9 7.64 9 9 9 C8.67 8.34 8.34 7.68 8 7 C11.465 6.505 11.465 6.505 15 6 C15 7.98 15 9.96 15 12 C11.71303767 12.79953138 10.28976808 13.09658936 7 12 C7 11.34 7 10.68 7 10 C5.35 10 3.7 10 2 10 C1.67 10.66 1.34 11.32 1 12 C0.34 11.67 -0.32 11.34 -1 11 C-1.5625 9.1875 -1.5625 9.1875 -2 7 C-2.2475 6.319375 -2.495 5.63875 -2.75 4.9375 C-2.8325 4.298125 -2.915 3.65875 -3 3 C-1.5625 1.25 -1.5625 1.25 0 0 Z " fill="#7D5D43" transform="translate(8,16)"/>
<path d="M0 0 C0.33 0 0.66 0 1 0 C1.62445813 4.29314961 2.10937748 8.53679512 2.25 12.875 C2.28867187 13.98488281 2.28867187 13.98488281 2.328125 15.1171875 C2.21984375 15.73851562 2.1115625 16.35984375 2 17 C1.01 17.66 0.02 18.32 -1 19 C-1.73343428 22.06556598 -1.73343428 22.06556598 -2 25 C-2.99 25 -3.98 25 -5 25 C-5.625 22.1875 -5.625 22.1875 -6 19 C-5.01 17.515 -5.01 17.515 -4 16 C-2.68 16 -1.36 16 0 16 C0.33 15.01 0.66 14.02 1 13 C0.01 13.33 -0.98 13.66 -2 14 C-2.66 13.67 -3.32 13.34 -4 13 C-3.27991594 8.39146203 -1.68704061 4.32762591 0 0 Z " fill="#9A8064" transform="translate(31,12)"/>
<path d="M0 0 C3.125 0.375 3.125 0.375 6 1 C7.32841008 6.43440487 7.32841008 6.43440487 5.875 8.9375 C4 10 4 10 1.4375 9.8125 C-1 9 -1 9 -3 7 C-2.67028521 3.70285207 -2.3773161 2.3773161 0 0 Z " fill="#1FB46F" transform="translate(33,30)"/>
<path d="M0 0 C5.57142857 5.14285714 5.57142857 5.14285714 6 9 C5.01 9 4.02 9 3 9 C3 8.34 3 7.68 3 7 C2.01 7 1.02 7 0 7 C0 10.96 0 14.92 0 19 C-0.33 19 -0.66 19 -1 19 C-1 16.36 -1 13.72 -1 11 C-2.65 11 -4.3 11 -6 11 C-6 10.01 -6 9.02 -6 8 C-5.01 8 -4.02 8 -3 8 C-3.33 6.68 -3.66 5.36 -4 4 C-5.65 3.67 -7.3 3.34 -9 3 C-9 2.67 -9 2.34 -9 2 C-6.36 2 -3.72 2 -1 2 C-0.67 1.34 -0.34 0.68 0 0 Z " fill="#866757" transform="translate(25,2)"/>
<path d="M0 0 C1.98 0 3.96 0 6 0 C6.33 1.65 6.66 3.3 7 5 C6.01 5 5.02 5 4 5 C3.67 6.32 3.34 7.64 3 9 C4.65 9 6.3 9 8 9 C8 9.66 8 10.32 8 11 C7.34 11 6.68 11 6 11 C6 11.99 6 12.98 6 14 C3.03 13.505 3.03 13.505 0 13 C0 12.34 0 11.68 0 11 C-0.33 10.34 -0.66 9.68 -1 9 C-0.01 9 0.98 9 2 9 C2 8.01 2 7.02 2 6 C1.01 5.67 0.02 5.34 -1 5 C-0.67 3.35 -0.34 1.7 0 0 Z " fill="#D5AD95" transform="translate(15,5)"/>
<path d="M0 0 C0.99 0 1.98 0 3 0 C3 0.66 3 1.32 3 2 C3.99 2 4.98 2 6 2 C5.7589852 9.10993658 5.7589852 9.10993658 3.59765625 11.64453125 C1.9375 13 1.9375 13 -1 15 C-0.67 10.05 -0.34 5.1 0 0 Z " fill="#483428" transform="translate(25,9)"/>
<path d="M0 0 C0.78375 0.28875 1.5675 0.5775 2.375 0.875 C3.035 0.545 3.695 0.215 4.375 -0.125 C5.365 0.535 6.355 1.195 7.375 1.875 C7.375 2.535 7.375 3.195 7.375 3.875 C-4.41269664 4.44131283 -4.41269664 4.44131283 -9.625 0.875 C-9.955 0.215 -10.285 -0.445 -10.625 -1.125 C-6.41316588 -2.47880383 -3.99591359 -1.7125344 0 0 Z " fill="#999489" transform="translate(17.625,36.125)"/>
<path d="M0 0 C1.32 0.33 2.64 0.66 4 1 C4.33 3.97 4.66 6.94 5 10 C3.68 10.33 2.36 10.66 1 11 C1 10.01 1 9.02 1 8 C-0.32 7.67 -1.64 7.34 -3 7 C-2.25 2.25 -2.25 2.25 0 0 Z " fill="#AC9479" transform="translate(19,27)"/>
<path d="M0 0 C0.66 0.33 1.32 0.66 2 1 C1.67 2.32 1.34 3.64 1 5 C0.34 4.67 -0.32 4.34 -1 4 C-4.37822416 3.85624578 -6.77390955 3.92463652 -10 5 C-9.67 7.31 -9.34 9.62 -9 12 C-9.99 12 -10.98 12 -12 12 C-12.4206933 7.70892835 -12.45543836 5.64865463 -9.9375 2.0625 C-6.32000344 -0.47744439 -4.33327174 -0.49055907 0 0 Z " fill="#443E3F" transform="translate(23,1)"/>
<path d="M0 0 C1.0625 1.8125 1.0625 1.8125 2 4 C1.67 4.99 1.34 5.98 1 7 C1.66 7 2.32 7 3 7 C3 7.66 3 8.32 3 9 C0.69 9.33 -1.62 9.66 -4 10 C-5.76462683 6.91190305 -6 5.76687864 -6 2 C-4.02 1.34 -2.04 0.68 0 0 Z " fill="#C5CDDA" transform="translate(6,20)"/>
<path d="M0 0 C0.33 0 0.66 0 1 0 C1.02703381 1.93742341 1.04641125 3.87495479 1.0625 5.8125 C1.07410156 6.89144531 1.08570313 7.97039063 1.09765625 9.08203125 C1 12 1 12 0 15 C-0.66 14.67 -1.32 14.34 -2 14 C-1.67 12.68 -1.34 11.36 -1 10 C-2.32 10 -3.64 10 -5 10 C-5 11.65 -5 13.3 -5 15 C-5.33 15 -5.66 15 -6 15 C-6 12.36 -6 9.72 -6 7 C-4.02 7 -2.04 7 0 7 C0 4.69 0 2.38 0 0 Z " fill="#CBCFDA" transform="translate(39,14)"/>
<path d="M0 0 C0.28875 0.639375 0.5775 1.27875 0.875 1.9375 C1.82823451 4.15206079 1.82823451 4.15206079 4 5 C4 5.99 4 6.98 4 8 C3.01 8 2.02 8 1 8 C1.66 8.4125 2.32 8.825 3 9.25 C3.66 9.8275 4.32 10.405 5 11 C5 12.32 5 13.64 5 15 C4.34 15 3.68 15 3 15 C2.67 15.66 2.34 16.32 2 17 C-0.25998595 13.40537669 -0.20868087 10.43404325 -0.125 6.25 C-0.09792969 4.49429687 -0.09792969 4.49429687 -0.0703125 2.703125 C-0.04710937 1.81109375 -0.02390625 0.9190625 0 0 Z " fill="#AD836E" transform="translate(13,6)"/>
<path d="M0 0 C2.31 0.66 4.62 1.32 7 2 C7 2.66 7 3.32 7 4 C8.65 4.33 10.3 4.66 12 5 C11.67 5.99 11.34 6.98 11 8 C10.360625 7.505 9.72125 7.01 9.0625 6.5 C4.95976517 4.49049723 1.48556418 4.73614328 -3 5 C-3 4.34 -3 3.68 -3 3 C-2.01 2.67 -1.02 2.34 0 2 C0 1.34 0 0.68 0 0 Z " fill="#B6B0A2" transform="translate(8,30)"/>
<path d="M0 0 C5.57142857 5.14285714 5.57142857 5.14285714 6 9 C5.01 9 4.02 9 3 9 C3 8.34 3 7.68 3 7 C2.01 7 1.02 7 0 7 C-0.33 7.99 -0.66 8.98 -1 10 C-1.9765625 3.9453125 -1.9765625 3.9453125 -2 2 C-1.34 1.34 -0.68 0.68 0 0 Z " fill="#5F5754" transform="translate(25,2)"/>
<path d="M0 0 C1.32 0 2.64 0 4 0 C4 2.31 4 4.62 4 7 C3.2575 6.95875 2.515 6.9175 1.75 6.875 C-1.08758952 7.00398134 -2.58773938 7.57051222 -5 9 C-4.67 8.01 -4.34 7.02 -4 6 C-1.9375 5.3125 -1.9375 5.3125 0 5 C0 3.35 0 1.7 0 0 Z " fill="#DCE7ED" transform="translate(34,24)"/>
<path d="M0 0 C1 3 1 3 1 5 C2.45833358 6.62514468 2.45833358 6.62514468 4 8 C3 10 3 10 1 12 C0.34 11.67 -0.32 11.34 -1 11 C-1.5625 9.1875 -1.5625 9.1875 -2 7 C-2.2475 6.319375 -2.495 5.63875 -2.75 4.9375 C-2.8325 4.298125 -2.915 3.65875 -3 3 C-1.5625 1.25 -1.5625 1.25 0 0 Z " fill="#8B7A6B" transform="translate(8,16)"/>
<path d="M0 0 C-0.33 0.99 -0.66 1.98 -1 3 C-1.66 3 -2.32 3 -3 3 C-3 3.33 -3 3.66 -3 4 C-5.875 4.1875 -5.875 4.1875 -9 4 C-9.66 3.01 -10.32 2.02 -11 1 C-7.2297564 -1.56376565 -4.32597804 -0.83191885 0 0 Z " fill="#88847E" transform="translate(13,29)"/>
<path d="M0 0 C0.66 0.33 1.32 0.66 2 1 C1.8125 2.875 1.8125 2.875 1 5 C-0.6635479 5.67441131 -2.33066942 6.3400321 -4 7 C-6.29577243 9.51406311 -6.29577243 9.51406311 -8 12 C-7.58388059 7.1452735 -5.54108048 5.19560921 -2 2 C-1.34 1.34 -0.68 0.68 0 0 Z " fill="#CCDAF0" transform="translate(9,2)"/>
<path d="M0 0 C1.07765625 0.01804688 2.1553125 0.03609375 3.265625 0.0546875 C4.49539062 0.08949219 4.49539062 0.08949219 5.75 0.125 C5.42 0.785 5.09 1.445 4.75 2.125 C4.15832031 2.07859375 3.56664062 2.0321875 2.95703125 1.984375 C-1.37446804 1.78652511 -3.58153944 1.68845433 -7.3125 4.125 C-8.2715625 5.115 -8.2715625 5.115 -9.25 6.125 C-9.58 4.805 -9.91 3.485 -10.25 2.125 C-6.7733662 -0.01836161 -4.03770805 -0.08777626 0 0 Z " fill="#B5C2E0" transform="translate(20.25,-0.125)"/>
<path d="M0 0 C0.99 0.495 0.99 0.495 2 1 C2.59355614 3.64860427 2.74209269 6.29197322 3 9 C3.99 9 4.98 9 6 9 C6 9.66 6 10.32 6 11 C4.68 11.33 3.36 11.66 2 12 C1.1031286 9.3093858 0.72140874 7.11102904 0.4375 4.3125 C0.35371094 3.50425781 0.26992188 2.69601563 0.18359375 1.86328125 C0.12300781 1.24839844 0.06242187 0.63351563 0 0 Z " fill="#745F48" transform="translate(23,28)"/>
<path d="M0 0 C1.0625 1.8125 1.0625 1.8125 2 4 C1.67 4.99 1.34 5.98 1 7 C0.34 6.67 -0.32 6.34 -1 6 C-0.67 5.34 -0.34 4.68 0 4 C-1.98 4 -3.96 4 -6 4 C-6 3.34 -6 2.68 -6 2 C-4.02 1.34 -2.04 0.68 0 0 Z " fill="#B1B4C3" transform="translate(6,20)"/>
<path d="M0 0 C2 2.66666667 4 5.33333333 6 8 C5.34 8.66 4.68 9.32 4 10 C4 9.34 4 8.68 4 8 C3.01 8 2.02 8 1 8 C0.17361624 5.10765685 0 3.11257569 0 0 Z " fill="#4A3021" transform="translate(12,17)"/>
<path d="M0 0 C0.33 0 0.66 0 1 0 C1.44041451 5.28497409 1.44041451 5.28497409 1 8 C-1.5 10.5 -1.5 10.5 -4 12 C-3.71125 11.319375 -3.4225 10.63875 -3.125 9.9375 C-1.87402645 6.67106907 -0.92552045 3.37153877 0 0 Z " fill="#816E5C" transform="translate(31,12)"/>
<path d="M0 0 C0 1.98 0 3.96 0 6 C-1.32 6.33 -2.64 6.66 -4 7 C-4 5.02 -4 3.04 -4 1 C-1 0 -1 0 0 0 Z " fill="#9E8A70" transform="translate(24,31)"/>
<path d="M0 0 C0.66 0 1.32 0 2 0 C2 1.98 2 3.96 2 6 C0.68 5.67 -0.64 5.34 -2 5 C-1.125 1.125 -1.125 1.125 0 0 Z " fill="#967359" transform="translate(21,22)"/>
<path d="M0 0 C1.65 0 3.3 0 5 0 C4.67 2.31 4.34 4.62 4 7 C3.34 6.67 2.68 6.34 2 6 C2.33 4.68 2.66 3.36 3 2 C2.01 2 1.02 2 0 2 C0 1.34 0 0.68 0 0 Z " fill="#C2CBE4" transform="translate(35,22)"/>
<path d="M0 0 C0.99 0 1.98 0 3 0 C2.67 2.64 2.34 5.28 2 8 C-0.1519437 4.77208445 -0.20086443 3.71599191 0 0 Z " fill="#4C3D34" transform="translate(28,11)"/>
<path d="M0 0 C1.98 0 3.96 0 6 0 C6.33 1.65 6.66 3.3 7 5 C6.34 4.01 5.68 3.02 5 2 C2.13275314 2.57344937 1.1385485 2.8614515 -1 5 C-0.67 3.35 -0.34 1.7 0 0 Z " fill="#C3A08A" transform="translate(15,5)"/>
<path d="M0 0 C0.598125 0.20625 1.19625 0.4125 1.8125 0.625 C1.4825 1.945 1.1525 3.265 0.8125 4.625 C-1.1675 3.635 -3.1475 2.645 -5.1875 1.625 C-2.1875 -0.375 -2.1875 -0.375 0 0 Z " fill="#413E40" transform="translate(23.1875,1.375)"/>
<path d="M0 0 C0.28875 0.639375 0.5775 1.27875 0.875 1.9375 C1.82823451 4.15206079 1.82823451 4.15206079 4 5 C4 5.99 4 6.98 4 8 C2.68 7.67 1.36 7.34 0 7 C0 4.69 0 2.38 0 0 Z " fill="#897164" transform="translate(13,6)"/>
</svg>
