<svg width="19" height="20" viewBox="0 0 19 20" fill="none" xmlns="http://www.w3.org/2000/svg">
<path id="Icon" d="M16.0833 6.06478L8.99997 9.99996M8.99997 9.99996L1.91664 6.06478M8.99997 9.99996L9 17.9167M10.6667 17.4074L9.64753 17.9736C9.41119 18.1049 9.29302 18.1705 9.16788 18.1963C9.05712 18.2191 8.94288 18.2191 8.83213 18.1963C8.70698 18.1705 8.58881 18.1049 8.35248 17.9736L2.18581 14.5477C1.93621 14.409 1.8114 14.3397 1.72053 14.241C1.64013 14.1538 1.57929 14.0504 1.54207 13.9378C1.5 13.8104 1.5 13.6677 1.5 13.3821V6.61786C1.5 6.33233 1.5 6.18956 1.54207 6.06223C1.57929 5.94958 1.64013 5.84618 1.72053 5.75894C1.8114 5.66032 1.93621 5.59099 2.18581 5.45232L8.35248 2.02639C8.58881 1.8951 8.70698 1.82944 8.83213 1.80371C8.94288 1.78093 9.05712 1.78093 9.16788 1.80371C9.29302 1.82944 9.41119 1.89509 9.64753 2.02639L15.8142 5.45232C16.0638 5.59099 16.1886 5.66032 16.2795 5.75893C16.3599 5.84618 16.4207 5.94958 16.4579 6.06222C16.5 6.18956 16.5 6.33232 16.5 6.61786L16.5 10.4167M5.25 3.74999L12.75 7.91665M12.3333 15L14 16.6667L17.3333 13.3333" stroke="#1570EF" stroke-width="1.66667" stroke-linecap="round" stroke-linejoin="round"/>
</svg>
