<svg width="32" height="32" viewBox="0 0 32 32" fill="none" xmlns="http://www.w3.org/2000/svg">
<path d="M0 16C0 7.16344 7.16344 0 16 0C24.8366 0 32 7.16344 32 16C32 24.8366 24.8366 32 16 32C7.16344 32 0 24.8366 0 16Z" fill="#DCFAE6"/>
<g clip-path="url(#clip0_4944_371137)">
<path d="M13 16L15 18L19 14M22.6667 16C22.6667 19.6819 19.6819 22.6667 16 22.6667C12.3181 22.6667 9.33337 19.6819 9.33337 16C9.33337 12.3181 12.3181 9.33337 16 9.33337C19.6819 9.33337 22.6667 12.3181 22.6667 16Z" stroke="#079455" stroke-width="1.33333" stroke-linecap="round" stroke-linejoin="round"/>
</g>
<defs>
<clipPath id="clip0_4944_371137">
<rect width="16" height="16" fill="white" transform="translate(8 8)"/>
</clipPath>
</defs>
</svg>
