<svg width="16" height="16" viewBox="0 0 16 16" fill="none" xmlns="http://www.w3.org/2000/svg">
<path d="M6.83981 14.6668H8.49062C9.41631 14.6668 9.92801 14.2324 9.92801 13.4398V11.4246C9.92801 10.8242 10.1851 10.5361 10.8177 10.1212C11.998 9.34398 12.6665 8.17373 12.6665 6.92053V5.38131C12.6665 4.77436 12.2294 4.4556 11.5197 4.4556H10.6943V2.13258C10.6943 1.69156 10.2777 1.3335 9.76602 1.3335C9.24917 1.3335 8.82747 1.69156 8.82747 2.13258V4.4556H6.51068V2.13258C6.51068 1.69156 6.08641 1.3335 5.58242 1.3335C5.06044 1.3335 4.6413 1.69156 4.6413 2.13258V4.4556H3.80304C3.08563 4.4556 2.6665 4.77436 2.6665 5.38131V6.92053C2.6665 8.17373 3.32734 9.34398 4.51531 10.1212C5.14786 10.5361 5.40243 10.8242 5.40243 11.4246V13.4398C5.40243 14.2302 5.8987 14.6668 6.83981 14.6668ZM7.03524 13.4813C6.89381 13.4813 6.80381 13.3983 6.80381 13.2783V11.4246C6.80381 10.44 6.3384 9.8112 5.35871 9.17368C4.44845 8.58419 4.06532 7.90082 4.06532 6.92053V5.84198C4.06532 5.72409 4.15018 5.64549 4.28389 5.64549H11.0363C11.1725 5.64549 11.2677 5.72409 11.2677 5.84198V6.92053C11.2677 7.89646 10.8794 8.58419 9.97172 9.17368C8.99461 9.80902 8.53176 10.44 8.53176 11.4246V13.2783C8.53176 13.3983 8.43148 13.4813 8.29263 13.4813H7.03524Z" fill="#737373"/>
</svg>
