<svg width="24" height="24" viewBox="0 0 24 24" fill="none" xmlns="http://www.w3.org/2000/svg">
<path fill-rule="evenodd" clip-rule="evenodd" d="M7.8 2H7.7587H7.75868C6.95372 1.99999 6.28937 1.99998 5.74818 2.04419C5.18608 2.09012 4.66937 2.18868 4.18404 2.43598C3.43139 2.81947 2.81947 3.43139 2.43598 4.18404C2.18868 4.66937 2.09012 5.18608 2.04419 5.74818C1.99998 6.28937 1.99999 6.95372 2 7.75868V7.7587V7.8V16.2V16.2413V16.2413C1.99999 17.0463 1.99998 17.7106 2.04419 18.2518C2.09012 18.8139 2.18868 19.3306 2.43598 19.816C2.81947 20.5686 3.43139 21.1805 4.18404 21.564C4.66937 21.8113 5.18608 21.9099 5.74818 21.9558C6.28937 22 6.95372 22 7.75868 22H7.8H9H16.2H16.2413C17.0463 22 17.7106 22 18.2518 21.9558C18.8139 21.9099 19.3306 21.8113 19.816 21.564C20.5686 21.1805 21.1805 20.5686 21.564 19.816C21.8113 19.3306 21.9099 18.8139 21.9558 18.2518C22 17.7106 22 17.0463 22 16.2413V16.2V7.8V7.75868C22 6.95372 22 6.28937 21.9558 5.74818C21.9099 5.18608 21.8113 4.66937 21.564 4.18404C21.1805 3.43139 20.5686 2.81947 19.816 2.43598C19.3306 2.18868 18.8139 2.09012 18.2518 2.04419C17.7106 1.99998 17.0463 1.99999 16.2413 2H16.2413H16.2H9H7.8ZM16.2 20H10V4H16.2C17.0566 4 17.6389 4.00078 18.089 4.03755C18.5274 4.07337 18.7516 4.1383 18.908 4.21799C19.2843 4.40974 19.5903 4.7157 19.782 5.09202C19.8617 5.24842 19.9266 5.47262 19.9624 5.91104C19.9992 6.36113 20 6.94342 20 7.8V16.2C20 17.0566 19.9992 17.6389 19.9624 18.089C19.9266 18.5274 19.8617 18.7516 19.782 18.908C19.5903 19.2843 19.2843 19.5903 18.908 19.782C18.7516 19.8617 18.5274 19.9266 18.089 19.9624C17.6389 19.9992 17.0566 20 16.2 20ZM8 20V4H7.8C6.94342 4 6.36113 4.00078 5.91104 4.03755C5.47262 4.07337 5.24842 4.1383 5.09202 4.21799C4.7157 4.40974 4.40974 4.7157 4.21799 5.09202C4.1383 5.24842 4.07337 5.47262 4.03755 5.91104C4.00078 6.36113 4 6.94342 4 7.8V16.2C4 17.0566 4.00078 17.6389 4.03755 18.089C4.07337 18.5274 4.1383 18.7516 4.21799 18.908C4.40974 19.2843 4.7157 19.5903 5.09202 19.782C5.24842 19.8617 5.47262 19.9266 5.91104 19.9624C6.36113 19.9992 6.94342 20 7.8 20H8ZM6.70083 8H5.30471C5.12743 8 5 7.87709 5 7.70391V6.30168C5 6.11732 5.12188 6 5.30471 6H6.70083C6.87812 6 7 6.11732 7 6.30168V7.70391C7 7.87709 6.87258 8 6.70083 8ZM5.30471 11H6.70083C6.87258 11 7 10.8771 7 10.7039V9.30168C7 9.11732 6.87812 9 6.70083 9H5.30471C5.12188 9 5 9.11732 5 9.30168V10.7039C5 10.8771 5.12743 11 5.30471 11ZM6.70083 14H5.30471C5.12743 14 5 13.8771 5 13.7039V12.3017C5 12.1173 5.12188 12 5.30471 12H6.70083C6.87812 12 7 12.1173 7 12.3017V13.7039C7 13.8771 6.87258 14 6.70083 14Z" fill="#57606A"/>
</svg>
