<svg width="40" height="40" viewBox="0 0 40 40" fill="none" xmlns="http://www.w3.org/2000/svg">
<path d="M0 20C0 8.95431 8.95431 0 20 0C31.0457 0 40 8.95431 40 20C40 31.0457 31.0457 40 20 40C8.95431 40 0 31.0457 0 20Z" fill="#D1E9FF"/>
<path d="M27.0833 16.0648L20 20M20 20L12.9166 16.0648M20 20L20 27.9167M21.6667 27.4074L20.6475 27.9736C20.4112 28.1049 20.293 28.1705 20.1679 28.1963C20.0571 28.2191 19.9429 28.2191 19.8321 28.1963C19.707 28.1705 19.5888 28.1049 19.3525 27.9736L13.1858 24.5477C12.9362 24.409 12.8114 24.3397 12.7205 24.241C12.6401 24.1538 12.5793 24.0504 12.5421 23.9378C12.5 23.8104 12.5 23.6677 12.5 23.3821V16.6179C12.5 16.3323 12.5 16.1896 12.5421 16.0622C12.5793 15.9496 12.6401 15.8462 12.7205 15.7589C12.8114 15.6603 12.9362 15.591 13.1858 15.4523L19.3525 12.0264C19.5888 11.8951 19.707 11.8294 19.8321 11.8037C19.9429 11.7809 20.0571 11.7809 20.1679 11.8037C20.293 11.8294 20.4112 11.8951 20.6475 12.0264L26.8142 15.4523C27.0638 15.591 27.1886 15.6603 27.2795 15.7589C27.3599 15.8462 27.4207 15.9496 27.4579 16.0622C27.5 16.1896 27.5 16.3323 27.5 16.6179L27.5 20.4167M16.25 13.75L23.75 17.9167M23.3333 25L25 26.6667L28.3333 23.3333" stroke="#1570EF" stroke-width="1.66667" stroke-linecap="round" stroke-linejoin="round"/>
</svg>
