<svg width="128" height="96" viewBox="0 0 128 96" fill="none" xmlns="http://www.w3.org/2000/svg">
<path d="M1 8C1 4.13401 4.13401 1 8 1H120C123.866 1 127 4.13401 127 8V88C127 91.866 123.866 95 120 95H8C4.13401 95 1 91.866 1 88V8Z" fill="white" stroke="#D0D7DE" stroke-width="2"/>
<mask id="path-2-inside-1_12418_1854" fill="white">
<path d="M64 0H120C124.418 0 128 3.58172 128 8V88C128 92.4183 124.418 96 120 96H64V0Z"/>
</mask>
<path d="M64 0H120C124.418 0 128 3.58172 128 8V88C128 92.4183 124.418 96 120 96H64V0Z" fill="#0D1117"/>
<path d="M64 -2H120C125.523 -2 130 2.47715 130 8H126C126 4.68629 123.314 2 120 2H64V-2ZM130 88C130 93.5229 125.523 98 120 98H64V94H120C123.314 94 126 91.3137 126 88H130ZM64 96V0V96ZM120 -2C125.523 -2 130 2.47715 130 8V88C130 93.5229 125.523 98 120 98V94C123.314 94 126 91.3137 126 88V8C126 4.68629 123.314 2 120 2V-2Z" fill="#30363D" mask="url(#path-2-inside-1_12418_1854)"/>
<mask id="path-4-inside-2_12418_1854" fill="white">
<path d="M0 8C0 3.58172 3.58172 0 8 0H120C124.418 0 128 3.58172 128 8V17H0V8Z"/>
</mask>
<path d="M0 0H128H0ZM128 19H0V15H128V19ZM0 17V0V17ZM128 0V17V0Z" fill="#D0D7DE" mask="url(#path-4-inside-2_12418_1854)"/>
<mask id="path-6-inside-3_12418_1854" fill="white">
<path d="M0 17H35V96H8C3.58172 96 0 92.4183 0 88V17Z"/>
</mask>
<path d="M0 17H35H0ZM35 96H0H35ZM0 96V17V96ZM37 17V96H33V17H37Z" fill="#D0D7DE" mask="url(#path-6-inside-3_12418_1854)"/>
<path d="M9 9C9 7.89543 9.89543 7 11 7H24C25.1046 7 26 7.89543 26 9C26 10.1046 25.1046 11 24 11H11C9.89543 11 9 10.1046 9 9Z" fill="#D0D7DE"/>
<path d="M30 9C30 7.89543 30.8954 7 32 7H45C46.1046 7 47 7.89543 47 9C47 10.1046 46.1046 11 45 11H32C30.8954 11 30 10.1046 30 9Z" fill="#D0D7DE"/>
<path d="M43 35C43 33.8954 43.8954 33 45 33H64C65.1046 33 66 33.8954 66 35C66 36.1046 65.1046 37 64 37H45C43.8954 37 43 36.1046 43 35Z" fill="#D0D7DE"/>
<path d="M43 47C43 45.8954 43.8954 45 45 45H115C116.105 45 117 45.8954 117 47C117 48.1046 116.105 49 115 49H45C43.8954 49 43 48.1046 43 47Z" fill="#D0D7DE"/>
<path d="M43 63C43 61.8954 43.8954 61 45 61H115C116.105 61 117 61.8954 117 63C117 64.1046 116.105 65 115 65H45C43.8954 65 43 64.1046 43 63Z" fill="#D0D7DE"/>
<path d="M43 55C43 53.8954 43.8954 53 45 53H115C116.105 53 117 53.8954 117 55C117 56.1046 116.105 57 115 57H45C43.8954 57 43 56.1046 43 55Z" fill="#D0D7DE"/>
<path d="M43 71C43 69.8954 43.8954 69 45 69H98C99.1046 69 100 69.8954 100 71C100 72.1046 99.1046 73 98 73H45C43.8954 73 43 72.1046 43 71Z" fill="#D0D7DE"/>
<path d="M50 9C50 7.89543 50.8954 7 52 7H65C66.1046 7 67 7.89543 67 9C67 10.1046 66.1046 11 65 11H52C50.8954 11 50 10.1046 50 9Z" fill="#D0D7DE"/>
<path d="M103 9C103 7.89543 103.895 7 105 7H118C119.105 7 120 7.89543 120 9C120 10.1046 119.105 11 118 11H105C103.895 11 103 10.1046 103 9Z" fill="#1570EF"/>
</svg>
