<svg
    width="44"
    height="44"
    viewBox="0 0 44 44"
    fill="none"
    xmlns="http://www.w3.org/2000/svg"
>
    <g filter="url(#filter0_d_12031_8487)">
        <path
            d="M2 21C2 9.95431 10.9543 1 22 1C33.0457 1 42 9.95431 42 21C42 32.0457 33.0457 41 22 41C10.9543 41 2 32.0457 2 21Z"
            fill="#F2F4F7"
        />
        <path
            d="M2.5 21C2.5 10.2304 11.2304 1.5 22 1.5C32.7696 1.5 41.5 10.2304 41.5 21C41.5 31.7696 32.7696 40.5 22 40.5C11.2304 40.5 2.5 31.7696 2.5 21Z"
            stroke="#EAECF0"
        />
        <path
            d="M22 27.6666V14.3333M22 14.3333L17 19.3333M22 14.3333L27 19.3333"
            stroke="#AFB8C1"
            stroke-width="1.66667"
            stroke-linecap="round"
            stroke-linejoin="round"
        />
    </g>
</svg>