<svg width="20" height="20" viewBox="0 0 20 20" fill="none" xmlns="http://www.w3.org/2000/svg">
<path d="M6.66634 5.00001C7.12658 5.00001 7.49967 4.62691 7.49967 4.16668C7.49967 3.70644 7.12658 3.33334 6.66634 3.33334C6.2061 3.33334 5.83301 3.70644 5.83301 4.16668C5.83301 4.62691 6.2061 5.00001 6.66634 5.00001Z" stroke="#6E7781" stroke-width="1.66667" stroke-linecap="round" stroke-linejoin="round"/>
<path d="M6.66634 10.8333C7.12658 10.8333 7.49967 10.4602 7.49967 10C7.49967 9.53977 7.12658 9.16668 6.66634 9.16668C6.2061 9.16668 5.83301 9.53977 5.83301 10C5.83301 10.4602 6.2061 10.8333 6.66634 10.8333Z" stroke="#6E7781" stroke-width="1.66667" stroke-linecap="round" stroke-linejoin="round"/>
<path d="M6.66634 16.6667C7.12658 16.6667 7.49967 16.2936 7.49967 15.8333C7.49967 15.3731 7.12658 15 6.66634 15C6.2061 15 5.83301 15.3731 5.83301 15.8333C5.83301 16.2936 6.2061 16.6667 6.66634 16.6667Z" stroke="#6E7781" stroke-width="1.66667" stroke-linecap="round" stroke-linejoin="round"/>
<path d="M12.4997 5.00001C12.9599 5.00001 13.333 4.62691 13.333 4.16668C13.333 3.70644 12.9599 3.33334 12.4997 3.33334C12.0394 3.33334 11.6663 3.70644 11.6663 4.16668C11.6663 4.62691 12.0394 5.00001 12.4997 5.00001Z" stroke="#6E7781" stroke-width="1.66667" stroke-linecap="round" stroke-linejoin="round"/>
<path d="M12.4997 10.8333C12.9599 10.8333 13.333 10.4602 13.333 10C13.333 9.53977 12.9599 9.16668 12.4997 9.16668C12.0394 9.16668 11.6663 9.53977 11.6663 10C11.6663 10.4602 12.0394 10.8333 12.4997 10.8333Z" stroke="#6E7781" stroke-width="1.66667" stroke-linecap="round" stroke-linejoin="round"/>
<path d="M12.4997 16.6667C12.9599 16.6667 13.333 16.2936 13.333 15.8333C13.333 15.3731 12.9599 15 12.4997 15C12.0394 15 11.6663 15.3731 11.6663 15.8333C11.6663 16.2936 12.0394 16.6667 12.4997 16.6667Z" stroke="#6E7781" stroke-width="1.66667" stroke-linecap="round" stroke-linejoin="round"/>
</svg>
