<svg width="24" height="24" viewBox="0 0 24 24" fill="none" xmlns="http://www.w3.org/2000/svg">
<path d="M2.2406 11.9769C1.79117 12.5851 1.98767 13.1999 2.69404 13.1999H3.82903C4.36733 16.931 7.67977 20 11.773 20C13.7244 20 15.5054 19.2555 16.8078 18.12C17.4073 17.6408 17.4439 16.9433 17.1253 16.4848C16.7839 15.9921 16.0969 15.7936 15.3641 16.3419C14.4097 17.1623 13.1472 17.6774 11.773 17.6774C8.93771 17.6774 6.70522 15.6717 6.19492 13.1999H7.34924C8.0368 13.1999 8.25034 12.5908 7.79699 11.9786L5.6752 9.07591C5.31767 8.58577 4.72736 8.59539 4.37376 9.07591L2.2406 11.9769ZM6.73993 5.88C6.13877 6.35919 6.10775 7.05493 6.42247 7.50777C6.76956 8.0061 7.44908 8.20633 8.1836 7.65809C9.13984 6.84513 10.4023 6.32258 11.773 6.32258C14.6065 6.32258 16.8447 8.32831 17.3567 10.8018H16.174C15.4807 10.8018 15.2672 11.4092 15.7205 12.0232L17.848 14.9258C18.2056 15.4159 18.7959 15.4063 19.1495 14.9258L21.2809 12.0249C21.7264 11.4149 21.5339 10.8018 20.8274 10.8018H19.7226C19.1769 7.07078 15.8719 4 11.773 4C9.82159 4 8.04803 4.7427 6.73993 5.88Z" fill="#475467"/>
</svg>
