<svg width="18" height="5" viewBox="0 0 18 5" fill="none" xmlns="http://www.w3.org/2000/svg">
<path d="M9 0.812256C8.60444 0.812256 8.21776 0.916077 7.88886 1.11059C7.55996 1.3051 7.30362 1.58157 7.15224 1.90503C7.00087 2.2285 6.96126 2.58443 7.03843 2.92781C7.1156 3.2712 7.30608 3.58662 7.58579 3.83419C7.86549 4.08175 8.22186 4.25035 8.60982 4.31865C8.99778 4.38696 9.39992 4.3519 9.76537 4.21792C10.1308 4.08394 10.4432 3.85704 10.6629 3.56594C10.8827 3.27483 11 2.93258 11 2.58246C11 2.11297 10.7893 1.66272 10.4142 1.33074C10.0391 0.99876 9.53043 0.812256 9 0.812256ZM2 0.812256C1.60444 0.812256 1.21776 0.916077 0.88886 1.11059C0.559962 1.3051 0.303617 1.58157 0.152242 1.90503C0.000866562 2.2285 -0.0387401 2.58443 0.0384303 2.92781C0.115601 3.2712 0.306082 3.58662 0.585787 3.83419C0.865492 4.08175 1.22186 4.25035 1.60982 4.31865C1.99778 4.38696 2.39992 4.3519 2.76537 4.21792C3.13082 4.08394 3.44318 3.85704 3.66294 3.56594C3.8827 3.27483 4 2.93258 4 2.58246C4 2.11297 3.78929 1.66272 3.41421 1.33074C3.03914 0.99876 2.53043 0.812256 2 0.812256ZM16 0.812256C15.6044 0.812256 15.2178 0.916077 14.8889 1.11059C14.56 1.3051 14.3036 1.58157 14.1522 1.90503C14.0009 2.2285 13.9613 2.58443 14.0384 2.92781C14.1156 3.2712 14.3061 3.58662 14.5858 3.83419C14.8655 4.08175 15.2219 4.25035 15.6098 4.31865C15.9978 4.38696 16.3999 4.3519 16.7654 4.21792C17.1308 4.08394 17.4432 3.85704 17.6629 3.56594C17.8827 3.27483 18 2.93258 18 2.58246C18 2.11297 17.7893 1.66272 17.4142 1.33074C17.0391 0.99876 16.5304 0.812256 16 0.812256Z" fill="#768396"/>
</svg>
