<svg width="20" height="20" viewBox="0 0 20 20" fill="none" xmlns="http://www.w3.org/2000/svg">
<path d="M8.54964 18.3337H10.6132C11.7703 18.3337 12.4099 17.7906 12.4099 16.7999V14.2809C12.4099 13.5304 12.7313 13.1702 13.522 12.6517C14.9973 11.6801 15.833 10.2173 15.833 8.65078V6.72676C15.833 5.96807 15.2866 5.56962 14.3995 5.56962H13.3677V2.66585C13.3677 2.11457 12.847 1.66699 12.2074 1.66699C11.5613 1.66699 11.0342 2.11457 11.0342 2.66585V5.56962H8.13823V2.66585C8.13823 2.11457 7.60789 1.66699 6.9779 1.66699C6.32542 1.66699 5.80151 2.11457 5.80151 2.66585V5.56962H4.75368C3.85692 5.56962 3.33301 5.96807 3.33301 6.72676V8.65078C3.33301 10.2173 4.15906 11.6801 5.64401 12.6517C6.4347 13.1702 6.75291 13.5304 6.75291 14.2809V16.7999C6.75291 17.7878 7.37325 18.3337 8.54964 18.3337ZM8.79392 16.8518C8.61714 16.8518 8.50465 16.748 8.50465 16.5979V14.2809C8.50465 13.0501 7.92288 12.2641 6.69827 11.4672C5.56044 10.7304 5.08153 9.87615 5.08153 8.65078V7.3026C5.08153 7.15523 5.1876 7.05698 5.35474 7.05698H13.7952C13.9656 7.05698 14.0845 7.15523 14.0845 7.3026V8.65078C14.0845 9.87069 13.5991 10.7304 12.4645 11.4672C11.2431 12.2614 10.6646 13.0501 10.6646 14.2809V16.5979C10.6646 16.748 10.5392 16.8518 10.3657 16.8518H8.79392Z" fill="#737373"/>
</svg>
