<svg width="32" height="32" viewBox="0 0 32 32" fill="none" xmlns="http://www.w3.org/2000/svg">
<path d="M0 16C0 7.16344 7.16344 0 16 0C24.8366 0 32 7.16344 32 16C32 24.8366 24.8366 32 16 32C7.16344 32 0 24.8366 0 16Z" fill="#FEF0C7"/>
<path d="M15.9998 14V16.6667M15.9998 19.3334H16.0064M15.0766 10.5945L9.59338 20.0656C9.28924 20.5909 9.13717 20.8536 9.15965 21.0692C9.17925 21.2572 9.27776 21.4281 9.43067 21.5392C9.60597 21.6667 9.90948 21.6667 10.5165 21.6667H21.483C22.09 21.6667 22.3935 21.6667 22.5688 21.5392C22.7217 21.4281 22.8203 21.2572 22.8399 21.0692C22.8623 20.8536 22.7103 20.5909 22.4061 20.0656L16.9229 10.5945C16.6198 10.0711 16.4683 9.80935 16.2706 9.72145C16.0982 9.64477 15.9013 9.64477 15.7289 9.72145C15.5312 9.80935 15.3797 10.0711 15.0766 10.5945Z" stroke="#DC6803" stroke-width="1.33333" stroke-linecap="round" stroke-linejoin="round"/>
</svg>
