<svg width="25" height="24" viewBox="0 0 25 24" fill="none" xmlns="http://www.w3.org/2000/svg">
<rect width="24" height="24" transform="translate(0.656006)" fill="white" fill-opacity="0.01"/>
<path fill-rule="evenodd" clip-rule="evenodd" d="M12.299 17.9645C10.769 19.4595 8.28299 19.4605 6.75699 17.9685C6.39521 17.6168 6.10768 17.196 5.9114 16.7311C5.71512 16.2662 5.61408 15.7667 5.61427 15.2621C5.61445 14.7575 5.71586 14.2581 5.91248 13.7933C6.10911 13.3286 6.39695 12.9081 6.75899 12.5565L13.906 5.57154C14.3381 5.1496 14.9179 4.91315 15.5219 4.91259C16.1258 4.91203 16.7061 5.14741 17.139 5.56854C18.032 6.44154 18.034 7.85054 17.143 8.72154L10.44 15.2715C10.3169 15.3901 10.1522 15.4556 9.98136 15.4541C9.81048 15.4526 9.647 15.3842 9.52599 15.2635C9.46455 15.2056 9.4156 15.1357 9.38215 15.0581C9.34869 14.9806 9.33143 14.897 9.33143 14.8125C9.33143 14.7281 9.34869 14.6445 9.38215 14.567C9.4156 14.4894 9.46455 14.4195 9.52599 14.3615L15.755 8.27454C15.8457 8.18679 15.9179 8.08168 15.9672 7.96546C16.0165 7.84923 16.0419 7.72428 16.0419 7.59804C16.0419 7.4718 16.0165 7.34685 15.9672 7.23063C15.9179 7.11441 15.8457 7.00929 15.755 6.92154C15.5694 6.74192 15.3213 6.6415 15.063 6.6415C14.8047 6.6415 14.5566 6.74192 14.371 6.92154L8.14099 13.0085C7.8982 13.242 7.70505 13.5221 7.57312 13.832C7.44118 14.1419 7.37317 14.4752 7.37317 14.812C7.37317 15.1489 7.44118 15.4822 7.57312 15.7921C7.70505 16.102 7.8982 16.3821 8.14099 16.6155C8.63309 17.0959 9.29301 17.3655 9.98067 17.3672C10.6683 17.3689 11.3296 17.1025 11.824 16.6245L18.527 10.0745C18.9199 9.69441 19.2323 9.23909 19.4456 8.73569C19.6588 8.23229 19.7686 7.69111 19.7683 7.14441C19.768 6.5977 19.6577 6.05664 19.444 5.55345C19.2302 5.05027 18.9173 4.59527 18.524 4.21554C17.7199 3.43487 16.6431 2.99846 15.5224 2.99902C14.4017 2.99958 13.3253 3.43707 12.522 4.21854L5.37399 11.2035C4.83051 11.7306 4.39839 12.3615 4.10327 13.0587C3.80815 13.7559 3.65604 14.5052 3.65594 15.2623C3.65585 16.0194 3.80778 16.7688 4.10273 17.4661C4.39768 18.1634 4.82964 18.7943 5.37299 19.3215C7.66299 21.5605 11.388 21.5595 13.683 19.3165L20.369 12.7835C20.4597 12.6958 20.5319 12.5907 20.5812 12.4745C20.6305 12.3582 20.6559 12.2333 20.6559 12.107C20.6559 11.9808 20.6305 11.8559 20.5812 11.7396C20.5319 11.6234 20.4597 11.5183 20.369 11.4305C20.1834 11.2509 19.9353 11.1505 19.677 11.1505C19.4187 11.1505 19.1706 11.2509 18.985 11.4305L12.299 17.9645Z" fill="#42526E"/>
</svg>
