<svg width="24" height="26" viewBox="0 0 24 26" fill="none" xmlns="http://www.w3.org/2000/svg">
<path d="M16.6667 5.99992V5.06659C16.6667 3.7598 16.6667 3.1064 16.4123 2.60727C16.1886 2.16823 15.8317 1.81127 15.3926 1.58757C14.8935 1.33325 14.2401 1.33325 12.9333 1.33325H11.0667C9.75988 1.33325 9.10648 1.33325 8.60736 1.58757C8.16831 1.81127 7.81136 2.16823 7.58765 2.60727C7.33333 3.1064 7.33333 3.7598 7.33333 5.06659V5.99992M9.66667 12.4166V18.2499M14.3333 12.4166V18.2499M1.5 5.99992H22.5M20.1667 5.99992V19.0666C20.1667 21.0268 20.1667 22.0069 19.7852 22.7556C19.4496 23.4141 18.9142 23.9496 18.2556 24.2851C17.5069 24.6666 16.5268 24.6666 14.5667 24.6666H9.43333C7.47315 24.6666 6.49306 24.6666 5.74437 24.2851C5.0858 23.9496 4.55037 23.4141 4.21481 22.7556C3.83333 22.0069 3.83333 21.0268 3.83333 19.0666V5.99992" stroke="#D92D20" stroke-width="2" stroke-linecap="round" stroke-linejoin="round"/>
</svg>
