<svg width="128" height="24" viewBox="0 0 128 24" fill="none" xmlns="http://www.w3.org/2000/svg">
<rect width="128" height="24" fill="white" fill-opacity="0.01"/>
<rect width="24" height="24" fill="white" fill-opacity="0.01"/>
<path d="M6.25 8.45969L10.1742 4.53552V16.9905L6.25 21V8.45969Z" fill="#0052CC"/>
<path d="M10.1877 4.54914C10.8027 3.9341 11.56 3.48024 12.3923 3.22775C13.2246 2.97526 14.1064 2.93194 14.9595 3.10163C15.8126 3.27132 16.6107 3.64878 17.283 4.20057C17.9554 4.75236 18.4813 5.46146 18.8141 6.26505C19.147 7.06864 19.2765 7.94191 19.1913 8.80752C19.106 9.67313 18.8086 10.5044 18.3254 11.2276C17.8421 11.9508 17.188 12.5436 16.4209 12.9537C15.6538 13.3637 14.7974 13.5782 13.9277 13.5782L13.9276 8.2891L10.1877 4.54914Z" fill="#0052CC"/>
<path d="M24 19.7708V4.73958H30.0417C33.2083 4.73958 35.3229 6.78125 35.3229 9.875V9.89583C35.3229 12.9896 33.2083 15.0312 30.0417 15.0312H27.1458V19.7708H24ZM29.2708 7.22917H27.1458V12.5729H29.2708C31.0729 12.5729 32.1354 11.6146 32.1354 9.90625V9.88542C32.1354 8.17708 31.0729 7.22917 29.2708 7.22917Z" fill="#0052CC"/>
<path d="M41.6354 20C38.2188 20 36.1458 17.7812 36.1458 14.2083V14.1979C36.1458 10.6458 38.2396 8.375 41.5104 8.375C44.7812 8.375 46.8333 10.5938 46.8333 13.9688V14.9062H39.1458C39.1771 16.6875 40.1458 17.7292 41.6979 17.7292C42.9479 17.7292 43.7083 17.0417 43.9271 16.4167L43.9479 16.3542H46.7396L46.7083 16.4688C46.3646 18.1146 44.8229 20 41.6354 20ZM41.5625 10.6458C40.3125 10.6458 39.375 11.4792 39.1771 12.9896H43.9167C43.7292 11.4479 42.8229 10.6458 41.5625 10.6458Z" fill="#0052CC"/>
<path d="M48.4062 19.7708V8.60417H51.4479V10.5521H51.5104C51.8438 9.17708 52.75 8.375 54.0521 8.375C54.3854 8.375 54.6979 8.42708 54.9271 8.48958V11.1667C54.6771 11.0625 54.2604 11 53.8229 11C52.3229 11 51.4479 11.8958 51.4479 13.5208V19.7708H48.4062Z" fill="#0052CC"/>
<path d="M56.1771 19.7708V8.60417H59.2188V10.4792H59.2812C59.7396 9.20833 60.9062 8.375 62.4062 8.375C63.9688 8.375 65.1042 9.20833 65.4792 10.6771H65.5417C66.0417 9.27083 67.375 8.375 69.0104 8.375C71.1979 8.375 72.6667 9.88542 72.6667 12.1354V19.7708H69.625V12.8958C69.625 11.6042 68.9792 10.8958 67.8021 10.8958C66.6458 10.8958 65.8854 11.7396 65.8854 12.9792V19.7708H62.9583V12.8021C62.9583 11.6042 62.2812 10.8958 61.1562 10.8958C60 10.8958 59.2188 11.7708 59.2188 13.0312V19.7708H56.1771Z" fill="#0052CC"/>
<path d="M76.1771 7.16667C75.2604 7.16667 74.5521 6.44792 74.5521 5.58333C74.5521 4.71875 75.2604 4 76.1771 4C77.0938 4 77.8021 4.71875 77.8021 5.58333C77.8021 6.44792 77.0938 7.16667 76.1771 7.16667ZM74.6562 19.7708V8.60417H77.6979V19.7708H74.6562Z" fill="#0052CC"/>
<path d="M84.1771 20C81.6979 20 80.5312 19.0417 80.5312 16.6458V10.8958H78.9792V8.60417H80.5312V5.875H83.6042V8.60417H85.6458V10.8958H83.6042V16.3125C83.6042 17.3542 84.0729 17.7083 84.9896 17.7083C85.2604 17.7083 85.4583 17.6771 85.6458 17.6562V19.8854C85.3021 19.9375 84.8125 20 84.1771 20Z" fill="#0052CC"/>
<path d="M92.2396 20C88.8229 20 86.75 17.7812 86.75 14.2083V14.1979C86.75 10.6458 88.8438 8.375 92.1146 8.375C95.3854 8.375 97.4375 10.5938 97.4375 13.9688V14.9062H89.75C89.7812 16.6875 90.75 17.7292 92.3021 17.7292C93.5521 17.7292 94.3125 17.0417 94.5312 16.4167L94.5521 16.3542H97.3438L97.3125 16.4688C96.9688 18.1146 95.4271 20 92.2396 20ZM92.1667 10.6458C90.9167 10.6458 89.9792 11.4792 89.7812 12.9896H94.5208C94.3333 11.4479 93.4271 10.6458 92.1667 10.6458Z" fill="#0052CC"/>
<path d="M104.115 20C100.708 20 98.6042 17.7812 98.6042 14.1771V14.1667C98.6042 10.5938 100.74 8.375 104.083 8.375C107.115 8.375 109.042 10.2396 109.156 12.6562V12.7292H106.333L106.312 12.6354C106.125 11.5729 105.385 10.7604 104.125 10.7604C102.635 10.7604 101.698 12.0417 101.698 14.1771V14.1875C101.698 16.375 102.635 17.6146 104.135 17.6146C105.354 17.6146 106.115 16.8646 106.323 15.7396L106.333 15.6458H109.167V15.7083C109.021 18.1458 107.094 20 104.115 20Z" fill="#0052CC"/>
<path d="M110.708 19.7708V4.73958H113.75V10.5312H113.812C114.385 9.14583 115.562 8.375 117.24 8.375C119.656 8.375 121.156 10.0625 121.156 12.7604V19.7708H118.115V13.3854C118.115 11.8229 117.344 10.8958 115.958 10.8958C114.615 10.8958 113.75 11.9167 113.75 13.375V19.7708H110.708Z" fill="#0052CC"/>
</svg>
