<svg width="18" height="18" viewBox="0 0 18 18" fill="none" xmlns="http://www.w3.org/2000/svg">
<path d="M14.25 15.75H15.0078C15.7361 15.75 16.1003 15.75 16.3011 15.5981C16.476 15.4658 16.5842 15.2636 16.5973 15.0447C16.6123 14.7934 16.4102 14.4904 16.0062 13.8844L13.7484 10.4977C13.4146 9.99693 13.2477 9.74654 13.0373 9.65929C12.8533 9.58301 12.6466 9.58301 12.4627 9.65929C12.2523 9.74654 12.0854 9.99693 11.7515 10.4977L11.1934 11.3349M14.25 15.75L8.48661 7.42513C8.15516 6.94636 7.98943 6.70698 7.78242 6.62283C7.60132 6.54921 7.39864 6.54921 7.21755 6.62283C7.01053 6.70698 6.84481 6.94636 6.51335 7.42513L2.05363 13.8669C1.63136 14.4769 1.42023 14.7819 1.43225 15.0355C1.44272 15.2564 1.55013 15.4614 1.72579 15.5957C1.92748 15.75 2.29841 15.75 3.04026 15.75H14.25ZM15.75 4.5C15.75 5.74264 14.7426 6.75 13.5 6.75C12.2573 6.75 11.25 5.74264 11.25 4.5C11.25 3.25736 12.2573 2.25 13.5 2.25C14.7426 2.25 15.75 3.25736 15.75 4.5Z" stroke="#1570EF" stroke-width="1.5" stroke-linecap="round" stroke-linejoin="round"/>
</svg>
