<svg width="16" height="16" viewBox="0 0 16 16" fill="none" xmlns="http://www.w3.org/2000/svg">
<path fill-rule="evenodd" clip-rule="evenodd" d="M8.048 11.5227L5.44467 12.8913C5.33457 12.9492 5.21047 12.9751 5.08641 12.9662C4.96234 12.9572 4.84326 12.9137 4.74262 12.8406C4.64198 12.7675 4.5638 12.6677 4.51692 12.5525C4.47004 12.4373 4.45633 12.3113 4.47733 12.1887L4.974 9.28933L2.868 7.236C2.77906 7.14916 2.71617 7.03919 2.68643 6.91849C2.65669 6.7978 2.66129 6.6712 2.6997 6.55298C2.73811 6.43476 2.80881 6.32963 2.90381 6.24947C2.99882 6.16931 3.11434 6.11731 3.23733 6.09933L6.148 5.676L7.45 3.03867C7.50502 2.92702 7.59019 2.83301 7.69587 2.76727C7.80156 2.70153 7.92354 2.66669 8.048 2.66669C8.17246 2.66669 8.29444 2.70153 8.40013 2.76727C8.50581 2.83301 8.59098 2.92702 8.646 3.03867L9.94733 5.676L12.858 6.09933C12.9811 6.11721 13.0967 6.16913 13.1917 6.24925C13.2868 6.32937 13.3576 6.43449 13.3961 6.55273C13.4346 6.67096 13.4392 6.79761 13.4095 6.91835C13.3798 7.03909 13.317 7.14912 13.228 7.236L11.1213 9.28933L11.6187 12.1887C11.6396 12.3112 11.6258 12.4371 11.579 12.5522C11.5321 12.6673 11.454 12.767 11.3535 12.8401C11.253 12.9132 11.134 12.9567 11.01 12.9658C10.8861 12.9748 10.7621 12.949 10.652 12.8913L8.048 11.5227Z" fill="#FFC400"/>
</svg>
