<svg width="40" height="40" viewBox="0 0 40 40" fill="none" xmlns="http://www.w3.org/2000/svg">
<path d="M0 20C0 8.95431 8.95431 0 20 0C31.0457 0 40 8.95431 40 20C40 31.0457 31.0457 40 20 40C8.95431 40 0 31.0457 0 20Z" fill="#D1E9FF"/>
<path d="M16.6667 23.3333L20 20M20 20L23.3333 23.3333M20 20V27.5M26.6667 23.9524C27.6846 23.1117 28.3333 21.8399 28.3333 20.4167C28.3333 17.8854 26.2813 15.8333 23.75 15.8333C23.5679 15.8333 23.3976 15.7383 23.3051 15.5814C22.2184 13.7374 20.212 12.5 17.9167 12.5C14.4649 12.5 11.6667 15.2982 11.6667 18.75C11.6667 20.4718 12.3629 22.0309 13.4891 23.1613" stroke="#1570EF" stroke-width="1.66667" stroke-linecap="round" stroke-linejoin="round"/>
</svg>
